<svg xmlns="http://www.w3.org/2000/svg" viewBox="0 0 1200.0 1200.0" width="1200" height="1200"><defs><linearGradient id="orpoli" x1="0" y1="0" x2="1" y2="1"><stop offset="0" stop-color="#8A6A2C"/><stop offset=".45" stop-color="#E9CF8A"/><stop offset=".7" stop-color="#C9A14A"/><stop offset="1" stop-color="#9C7A34"/></linearGradient></defs><defs><pattern id="p" width="80" height="80" patternUnits="userSpaceOnUse"><path fill-rule="evenodd" fill="#C9A14A" opacity="0.7" transform="translate(10 10) scale(0.2)" d="M6 50A44 44 0 1 0 94 50A44 44 0 1 0 6 50ZM35.00 35.00 L65.00 35.00 L65.00 55.00 L49.00 55.00 L49.00 49.00 L55.00 49.00 L59.00 49.00 L59.00 41.00 L41.00 41.00 L41.00 63.00 L73.00 63.00 L73.00 27.00 L27.00 27.00 L27.00 69.00 L27.00 73.00 L35.00 73.00Z"/><circle cx="60" cy="60" r="1.6" fill="#C9A14A" opacity=".55"/><path d="M50 20H70M60 10V30" stroke="#C9A14A" stroke-width=".6" opacity=".3"/></pattern></defs><rect width="1200" height="1200" fill="url(#p)"/></svg>